<svg width="1281" height="501" viewBox="0 0 1281 501" fill="none" xmlns="http://www.w3.org/2000/svg">
<rect x="0.977234" y="0.0678711" width="1280" height="500" rx="50" fill="#1E3A8A"/>
<path d="M207.025 197.824H228.1L266.275 302.824H246.85L240.1 284.224H195.1L188.35 302.824H168.925L207.025 197.824ZM201.775 265.924H233.35L217.525 222.649L201.775 265.924ZM346.534 255.424V302.824H328.234V260.224C328.234 257.274 327.509 254.599 326.059 252.199C324.609 249.749 322.659 247.824 320.209 246.424C317.809 244.974 315.134 244.249 312.184 244.249C309.234 244.249 306.534 244.974 304.084 246.424C301.684 247.824 299.759 249.749 298.309 252.199C296.909 254.599 296.209 257.274 296.209 260.224V302.824H277.909L277.834 227.824H296.134L296.209 234.499C298.759 231.799 301.809 229.674 305.359 228.124C308.909 226.524 312.734 225.724 316.834 225.724C322.284 225.724 327.259 227.074 331.759 229.774C336.259 232.424 339.834 235.999 342.484 240.499C345.184 244.949 346.534 249.924 346.534 255.424ZM361.476 227.824H379.776V302.824H361.476V227.824ZM370.776 218.149C368.076 218.149 365.801 217.274 363.951 215.524C362.101 213.724 361.176 211.474 361.176 208.774C361.176 206.124 362.101 203.899 363.951 202.099C365.801 200.299 368.051 199.399 370.701 199.399C373.351 199.399 375.576 200.299 377.376 202.099C379.226 203.899 380.151 206.124 380.151 208.774C380.151 211.474 379.251 213.724 377.451 215.524C375.651 217.274 373.426 218.149 370.776 218.149Z" fill="#EFF6FF"/>
<path d="M397.218 302.824V227.824H415.518V234.499C418.068 231.799 421.118 229.674 424.668 228.124C428.218 226.524 432.043 225.724 436.143 225.724C441.343 225.724 446.118 226.949 450.468 229.399C454.868 231.849 458.368 235.124 460.968 239.224C463.618 235.124 467.118 231.849 471.468 229.399C475.818 226.949 480.593 225.724 485.793 225.724C491.293 225.724 496.268 227.074 500.718 229.774C505.218 232.424 508.793 235.999 511.443 240.499C514.143 244.949 515.493 249.924 515.493 255.424V302.824H497.193V260.299C497.193 257.399 496.468 254.749 495.018 252.349C493.618 249.899 491.718 247.949 489.318 246.499C486.968 244.999 484.318 244.249 481.368 244.249C478.418 244.249 475.743 244.974 473.343 246.424C470.993 247.824 469.093 249.724 467.643 252.124C466.193 254.524 465.468 257.249 465.468 260.299V302.824H447.168V260.299C447.168 257.249 446.468 254.524 445.068 252.124C443.668 249.724 441.768 247.824 439.368 246.424C436.968 244.974 434.293 244.249 431.343 244.249C428.443 244.249 425.793 244.999 423.393 246.499C420.993 247.949 419.068 249.899 417.618 252.349C416.218 254.749 415.518 257.399 415.518 260.299V302.824H397.218ZM562.054 304.774C555.154 304.774 548.854 302.999 543.154 299.449C537.504 295.899 532.979 291.124 529.579 285.124C526.229 279.124 524.554 272.499 524.554 265.249C524.554 259.799 525.529 254.699 527.479 249.949C529.429 245.149 532.104 240.949 535.504 237.349C538.954 233.699 542.954 230.849 547.504 228.799C552.054 226.749 556.904 225.724 562.054 225.724C567.904 225.724 573.254 226.974 578.104 229.474C583.004 231.924 587.154 235.299 590.554 239.599C593.954 243.899 596.429 248.799 597.979 254.299C599.529 259.799 599.879 265.549 599.029 271.549H544.204C544.904 274.349 546.054 276.874 547.654 279.124C549.254 281.324 551.279 283.099 553.729 284.449C556.179 285.749 558.954 286.424 562.054 286.474C565.254 286.524 568.154 285.774 570.754 284.224C573.404 282.624 575.604 280.474 577.354 277.774L596.029 282.124C592.979 288.774 588.429 294.224 582.379 298.474C576.329 302.674 569.554 304.774 562.054 304.774ZM543.604 257.824H580.504C579.954 254.824 578.779 252.124 576.979 249.724C575.229 247.274 573.054 245.324 570.454 243.874C567.854 242.424 565.054 241.699 562.054 241.699C559.054 241.699 556.279 242.424 553.729 243.874C551.179 245.274 549.004 247.199 547.204 249.649C545.454 252.049 544.254 254.774 543.604 257.824ZM679.932 255.424V302.824H661.632V260.224C661.632 257.274 660.907 254.599 659.457 252.199C658.007 249.749 656.057 247.824 653.607 246.424C651.207 244.974 648.532 244.249 645.582 244.249C642.632 244.249 639.932 244.974 637.482 246.424C635.082 247.824 633.157 249.749 631.707 252.199C630.307 254.599 629.607 257.274 629.607 260.224V302.824H611.307L611.232 227.824H629.532L629.607 234.499C632.157 231.799 635.207 229.674 638.757 228.124C642.307 226.524 646.132 225.724 650.232 225.724C655.682 225.724 660.657 227.074 665.157 229.774C669.657 232.424 673.232 235.999 675.882 240.499C678.582 244.949 679.932 249.924 679.932 255.424ZM750.11 190.324H768.41V302.824H750.11V293.449C747.71 296.799 744.685 299.524 741.035 301.624C737.385 303.724 733.16 304.774 728.36 304.774C722.91 304.774 717.81 303.749 713.06 301.699C708.31 299.649 704.11 296.824 700.46 293.224C696.86 289.574 694.035 285.374 691.985 280.624C689.935 275.874 688.91 270.774 688.91 265.324C688.91 259.874 689.935 254.774 691.985 250.024C694.035 245.274 696.86 241.099 700.46 237.499C704.11 233.849 708.31 230.999 713.06 228.949C717.81 226.899 722.91 225.874 728.36 225.874C733.16 225.874 737.385 226.924 741.035 229.024C744.685 231.074 747.71 233.799 750.11 237.199V190.324ZM728.585 287.149C732.485 287.149 735.935 286.174 738.935 284.224C741.935 282.274 744.285 279.649 745.985 276.349C747.685 272.999 748.535 269.324 748.535 265.324C748.535 261.274 747.685 257.599 745.985 254.299C744.285 250.949 741.91 248.299 738.86 246.349C735.86 244.399 732.435 243.424 728.585 243.424C724.735 243.424 721.21 244.424 718.01 246.424C714.86 248.374 712.335 250.999 710.435 254.299C708.585 257.599 707.66 261.274 707.66 265.324C707.66 269.374 708.61 273.049 710.51 276.349C712.41 279.649 714.935 282.274 718.085 284.224C721.285 286.174 724.785 287.149 728.585 287.149ZM841.806 227.824H860.106V302.824H841.806L840.981 293.524C838.931 296.874 836.206 299.599 832.806 301.699C829.456 303.749 825.481 304.774 820.881 304.774C815.331 304.774 810.131 303.724 805.281 301.624C800.431 299.524 796.156 296.624 792.456 292.924C788.806 289.224 785.931 284.949 783.831 280.099C781.781 275.249 780.756 270.049 780.756 264.499C780.756 259.149 781.731 254.124 783.681 249.424C785.681 244.724 788.456 240.599 792.006 237.049C795.556 233.499 799.656 230.724 804.306 228.724C808.956 226.724 813.956 225.724 819.306 225.724C824.256 225.724 828.681 226.824 832.581 229.024C836.531 231.224 839.881 234.024 842.631 237.424L841.806 227.824ZM820.431 287.149C824.331 287.149 827.781 286.174 830.781 284.224C833.781 282.274 836.131 279.649 837.831 276.349C839.531 272.999 840.381 269.324 840.381 265.324C840.381 261.274 839.531 257.599 837.831 254.299C836.131 250.949 833.756 248.299 830.706 246.349C827.706 244.399 824.281 243.424 820.431 243.424C816.581 243.424 813.056 244.424 809.856 246.424C806.706 248.374 804.181 250.999 802.281 254.299C800.431 257.599 799.506 261.274 799.506 265.324C799.506 269.374 800.456 273.049 802.356 276.349C804.256 279.649 806.781 282.274 809.931 284.224C813.131 286.174 816.631 287.149 820.431 287.149ZM915.25 246.124H900.7V302.824H882.4V246.124H871.3V227.824H882.4V204.274H900.7V227.824H915.25V246.124ZM927.638 227.824H945.938V302.824H927.638V227.824ZM936.938 218.149C934.238 218.149 931.963 217.274 930.113 215.524C928.263 213.724 927.338 211.474 927.338 208.774C927.338 206.124 928.263 203.899 930.113 202.099C931.963 200.299 934.213 199.399 936.863 199.399C939.513 199.399 941.738 200.299 943.538 202.099C945.388 203.899 946.313 206.124 946.313 208.774C946.313 211.474 945.413 213.724 943.613 215.524C941.813 217.274 939.588 218.149 936.938 218.149ZM995.209 304.774C988.309 304.774 982.009 302.999 976.309 299.449C970.659 295.899 966.134 291.149 962.734 285.199C959.384 279.199 957.709 272.574 957.709 265.324C957.709 259.824 958.684 254.699 960.634 249.949C962.584 245.149 965.259 240.949 968.659 237.349C972.109 233.699 976.109 230.849 980.659 228.799C985.209 226.749 990.059 225.724 995.209 225.724C1002.11 225.724 1008.38 227.499 1014.03 231.049C1019.73 234.599 1024.26 239.374 1027.61 245.374C1031.01 251.374 1032.71 258.024 1032.71 265.324C1032.71 270.774 1031.73 275.874 1029.78 280.624C1027.83 285.374 1025.13 289.574 1021.68 293.224C1018.28 296.824 1014.31 299.649 1009.76 301.699C1005.26 303.749 1000.41 304.774 995.209 304.774ZM995.209 286.474C998.859 286.474 1002.13 285.499 1005.03 283.549C1007.93 281.599 1010.21 279.024 1011.86 275.824C1013.56 272.624 1014.41 269.124 1014.41 265.324C1014.41 261.424 1013.53 257.874 1011.78 254.674C1010.08 251.424 1007.76 248.849 1004.81 246.949C1001.91 244.999 998.709 244.024 995.209 244.024C991.609 244.024 988.359 244.999 985.459 246.949C982.559 248.899 980.259 251.499 978.559 254.749C976.859 257.999 976.009 261.524 976.009 265.324C976.009 269.274 976.884 272.849 978.634 276.049C980.384 279.249 982.709 281.799 985.609 283.699C988.559 285.549 991.759 286.474 995.209 286.474ZM1113.09 255.424V302.824H1094.79V260.224C1094.79 257.274 1094.06 254.599 1092.61 252.199C1091.16 249.749 1089.21 247.824 1086.76 246.424C1084.36 244.974 1081.69 244.249 1078.74 244.249C1075.79 244.249 1073.09 244.974 1070.64 246.424C1068.24 247.824 1066.31 249.749 1064.86 252.199C1063.46 254.599 1062.76 257.274 1062.76 260.224V302.824H1044.46L1044.39 227.824H1062.69L1062.76 234.499C1065.31 231.799 1068.36 229.674 1071.91 228.124C1075.46 226.524 1079.29 225.724 1083.39 225.724C1088.84 225.724 1093.81 227.074 1098.31 229.774C1102.81 232.424 1106.39 235.999 1109.04 240.499C1111.74 244.949 1113.09 249.924 1113.09 255.424Z" fill="#93C5FD"/>
</svg>
