<svg width="152" height="19" viewBox="0 0 152 19" fill="none" xmlns="http://www.w3.org/2000/svg">
<path d="M6.24356 1.7921H9.61556L15.7236 18.5921H12.6156L11.5356 15.6161H4.33556L3.25556 18.5921H0.147561L6.24356 1.7921ZM5.40356 12.6881H10.4556L7.92356 5.7641L5.40356 12.6881ZM28.5649 11.0081V18.5921H25.6369V11.7761C25.6369 11.3041 25.5209 10.8761 25.2889 10.4921C25.0569 10.1001 24.7449 9.7921 24.3529 9.5681C23.9689 9.3361 23.5409 9.2201 23.0689 9.2201C22.5969 9.2201 22.1649 9.3361 21.7729 9.5681C21.3889 9.7921 21.0809 10.1001 20.8489 10.4921C20.6249 10.8761 20.5129 11.3041 20.5129 11.7761V18.5921H17.5849L17.5729 6.5921H20.5009L20.5129 7.6601C20.9209 7.2281 21.4089 6.8881 21.9769 6.6401C22.5449 6.3841 23.1569 6.2561 23.8129 6.2561C24.6849 6.2561 25.4809 6.4721 26.2009 6.9041C26.9209 7.3281 27.4929 7.9001 27.9169 8.6201C28.3489 9.3321 28.5649 10.1281 28.5649 11.0081ZM30.9557 6.5921H33.8837V18.5921H30.9557V6.5921ZM32.4437 5.0441C32.0117 5.0441 31.6477 4.9041 31.3517 4.6241C31.0557 4.3361 30.9077 3.9761 30.9077 3.5441C30.9077 3.1201 31.0557 2.7641 31.3517 2.4761C31.6477 2.1881 32.0077 2.0441 32.4317 2.0441C32.8557 2.0441 33.2117 2.1881 33.4997 2.4761C33.7957 2.7641 33.9437 3.1201 33.9437 3.5441C33.9437 3.9761 33.7997 4.3361 33.5117 4.6241C33.2237 4.9041 32.8677 5.0441 32.4437 5.0441ZM36.6744 18.5921V6.5921H39.6024V7.6601C40.0104 7.2281 40.4984 6.8881 41.0664 6.6401C41.6344 6.3841 42.2464 6.2561 42.9024 6.2561C43.7344 6.2561 44.4984 6.4521 45.1944 6.8441C45.8984 7.2361 46.4584 7.7601 46.8744 8.4161C47.2984 7.7601 47.8584 7.2361 48.5544 6.8441C49.2504 6.4521 50.0144 6.2561 50.8464 6.2561C51.7264 6.2561 52.5224 6.4721 53.2344 6.9041C53.9544 7.3281 54.5264 7.9001 54.9504 8.6201C55.3824 9.3321 55.5984 10.1281 55.5984 11.0081V18.5921H52.6704V11.7881C52.6704 11.3241 52.5544 10.9001 52.3224 10.5161C52.0984 10.1241 51.7944 9.8121 51.4104 9.5801C51.0344 9.3401 50.6104 9.2201 50.1384 9.2201C49.6664 9.2201 49.2384 9.3361 48.8544 9.5681C48.4784 9.7921 48.1744 10.0961 47.9424 10.4801C47.7104 10.8641 47.5944 11.3001 47.5944 11.7881V18.5921H44.6664V11.7881C44.6664 11.3001 44.5544 10.8641 44.3304 10.4801C44.1064 10.0961 43.8024 9.7921 43.4184 9.5681C43.0344 9.3361 42.6064 9.2201 42.1344 9.2201C41.6704 9.2201 41.2464 9.3401 40.8624 9.5801C40.4784 9.8121 40.1704 10.1241 39.9384 10.5161C39.7144 10.9001 39.6024 11.3241 39.6024 11.7881V18.5921H36.6744ZM63.0482 18.9041C61.9442 18.9041 60.9362 18.6201 60.0242 18.0521C59.1202 17.4841 58.3962 16.7201 57.8522 15.7601C57.3162 14.8001 57.0482 13.7401 57.0482 12.5801C57.0482 11.7081 57.2042 10.8921 57.5162 10.1321C57.8282 9.3641 58.2562 8.6921 58.8002 8.1161C59.3522 7.5321 59.9922 7.0761 60.7202 6.7481C61.4482 6.4201 62.2242 6.2561 63.0482 6.2561C63.9842 6.2561 64.8402 6.4561 65.6162 6.8561C66.4002 7.2481 67.0642 7.7881 67.6082 8.4761C68.1522 9.1641 68.5482 9.9481 68.7962 10.8281C69.0442 11.7081 69.1002 12.6281 68.9642 13.5881H60.1922C60.3042 14.0361 60.4882 14.4401 60.7442 14.8001C61.0002 15.1521 61.3242 15.4361 61.7162 15.6521C62.1082 15.8601 62.5522 15.9681 63.0482 15.9761C63.5602 15.9841 64.0242 15.8641 64.4402 15.6161C64.8642 15.3601 65.2162 15.0161 65.4962 14.5841L68.4842 15.2801C67.9962 16.3441 67.2682 17.2161 66.3002 17.8961C65.3322 18.5681 64.2482 18.9041 63.0482 18.9041ZM60.0962 11.3921H66.0002C65.9122 10.9121 65.7242 10.4801 65.4362 10.0961C65.1562 9.7041 64.8082 9.3921 64.3922 9.1601C63.9762 8.9281 63.5282 8.8121 63.0482 8.8121C62.5682 8.8121 62.1242 8.9281 61.7162 9.1601C61.3082 9.3841 60.9602 9.6921 60.6722 10.0841C60.3922 10.4681 60.2002 10.9041 60.0962 11.3921ZM81.9086 11.0081V18.5921H78.9806V11.7761C78.9806 11.3041 78.8646 10.8761 78.6326 10.4921C78.4006 10.1001 78.0886 9.7921 77.6966 9.5681C77.3126 9.3361 76.8846 9.2201 76.4126 9.2201C75.9406 9.2201 75.5086 9.3361 75.1166 9.5681C74.7326 9.7921 74.4246 10.1001 74.1926 10.4921C73.9686 10.8761 73.8566 11.3041 73.8566 11.7761V18.5921H70.9286L70.9166 6.5921H73.8446L73.8566 7.6601C74.2646 7.2281 74.7526 6.8881 75.3206 6.6401C75.8886 6.3841 76.5006 6.2561 77.1566 6.2561C78.0286 6.2561 78.8246 6.4721 79.5446 6.9041C80.2646 7.3281 80.8366 7.9001 81.2606 8.6201C81.6926 9.3321 81.9086 10.1281 81.9086 11.0081ZM93.1371 0.592101H96.0651V18.5921H93.1371V17.0921C92.7531 17.6281 92.2691 18.0641 91.6851 18.4001C91.1011 18.7361 90.4251 18.9041 89.6571 18.9041C88.7851 18.9041 87.9691 18.7401 87.2091 18.4121C86.4491 18.0841 85.7771 17.6321 85.1931 17.0561C84.6171 16.4721 84.1651 15.8001 83.8371 15.0401C83.5091 14.2801 83.3451 13.4641 83.3451 12.5921C83.3451 11.7201 83.5091 10.9041 83.8371 10.1441C84.1651 9.3841 84.6171 8.7161 85.1931 8.1401C85.7771 7.5561 86.4491 7.1001 87.2091 6.7721C87.9691 6.4441 88.7851 6.2801 89.6571 6.2801C90.4251 6.2801 91.1011 6.4481 91.6851 6.7841C92.2691 7.1121 92.7531 7.5481 93.1371 8.0921V0.592101ZM89.6931 16.0841C90.3171 16.0841 90.8691 15.9281 91.3491 15.6161C91.8291 15.3041 92.2051 14.8841 92.4771 14.3561C92.7491 13.8201 92.8851 13.2321 92.8851 12.5921C92.8851 11.9441 92.7491 11.3561 92.4771 10.8281C92.2051 10.2921 91.8251 9.8681 91.3371 9.5561C90.8571 9.2441 90.3091 9.0881 89.6931 9.0881C89.0771 9.0881 88.5131 9.2481 88.0011 9.5681C87.4971 9.8801 87.0931 10.3001 86.7891 10.8281C86.4931 11.3561 86.3451 11.9441 86.3451 12.5921C86.3451 13.2401 86.4971 13.8281 86.8011 14.3561C87.1051 14.8841 87.5091 15.3041 88.0131 15.6161C88.5251 15.9281 89.0851 16.0841 89.6931 16.0841ZM107.808 6.5921H110.736V18.5921H107.808L107.676 17.1041C107.348 17.6401 106.912 18.0761 106.368 18.4121C105.832 18.7401 105.196 18.9041 104.46 18.9041C103.572 18.9041 102.74 18.7361 101.964 18.4001C101.188 18.0641 100.504 17.6001 99.9124 17.0081C99.3284 16.4161 98.8684 15.7321 98.5324 14.9561C98.2044 14.1801 98.0404 13.3481 98.0404 12.4601C98.0404 11.6041 98.1964 10.8001 98.5084 10.0481C98.8284 9.2961 99.2724 8.6361 99.8404 8.0681C100.408 7.5001 101.064 7.0561 101.808 6.7361C102.552 6.4161 103.352 6.2561 104.208 6.2561C105 6.2561 105.708 6.4321 106.332 6.7841C106.964 7.1361 107.5 7.5841 107.94 8.1281L107.808 6.5921ZM104.388 16.0841C105.012 16.0841 105.564 15.9281 106.044 15.6161C106.524 15.3041 106.9 14.8841 107.172 14.3561C107.444 13.8201 107.58 13.2321 107.58 12.5921C107.58 11.9441 107.444 11.3561 107.172 10.8281C106.9 10.2921 106.52 9.8681 106.032 9.5561C105.552 9.2441 105.004 9.0881 104.388 9.0881C103.772 9.0881 103.208 9.2481 102.696 9.5681C102.192 9.8801 101.788 10.3001 101.484 10.8281C101.188 11.3561 101.04 11.9441 101.04 12.5921C101.04 13.2401 101.192 13.8281 101.496 14.3561C101.8 14.8841 102.204 15.3041 102.708 15.6161C103.22 15.9281 103.78 16.0841 104.388 16.0841ZM119.56 9.5201H117.232V18.5921H114.304V9.5201H112.528V6.5921H114.304V2.8241H117.232V6.5921H119.56V9.5201ZM121.542 6.5921H124.47V18.5921H121.542V6.5921ZM123.03 5.0441C122.598 5.0441 122.234 4.9041 121.938 4.6241C121.642 4.3361 121.494 3.9761 121.494 3.5441C121.494 3.1201 121.642 2.7641 121.938 2.4761C122.234 2.1881 122.594 2.0441 123.018 2.0441C123.442 2.0441 123.798 2.1881 124.086 2.4761C124.382 2.7641 124.53 3.1201 124.53 3.5441C124.53 3.9761 124.386 4.3361 124.098 4.6241C123.81 4.9041 123.454 5.0441 123.03 5.0441ZM132.353 18.9041C131.249 18.9041 130.241 18.6201 129.329 18.0521C128.425 17.4841 127.701 16.7241 127.157 15.7721C126.621 14.8121 126.353 13.7521 126.353 12.5921C126.353 11.7121 126.509 10.8921 126.821 10.1321C127.133 9.3641 127.561 8.6921 128.105 8.1161C128.657 7.5321 129.297 7.0761 130.025 6.7481C130.753 6.4201 131.529 6.2561 132.353 6.2561C133.457 6.2561 134.461 6.5401 135.365 7.1081C136.277 7.6761 137.001 8.4401 137.537 9.4001C138.081 10.3601 138.353 11.4241 138.353 12.5921C138.353 13.4641 138.197 14.2801 137.885 15.0401C137.573 15.8001 137.141 16.4721 136.589 17.0561C136.045 17.6321 135.409 18.0841 134.681 18.4121C133.961 18.7401 133.185 18.9041 132.353 18.9041ZM132.353 15.9761C132.937 15.9761 133.461 15.8201 133.925 15.5081C134.389 15.1961 134.753 14.7841 135.017 14.2721C135.289 13.7601 135.425 13.2001 135.425 12.5921C135.425 11.9681 135.285 11.4001 135.005 10.8881C134.733 10.3681 134.361 9.9561 133.889 9.6521C133.425 9.3401 132.913 9.1841 132.353 9.1841C131.777 9.1841 131.257 9.3401 130.793 9.6521C130.329 9.9641 129.961 10.3801 129.689 10.9001C129.417 11.4201 129.281 11.9841 129.281 12.5921C129.281 13.2241 129.421 13.7961 129.701 14.3081C129.981 14.8201 130.353 15.2281 130.817 15.5321C131.289 15.8281 131.801 15.9761 132.353 15.9761ZM151.213 11.0081V18.5921H148.285V11.7761C148.285 11.3041 148.169 10.8761 147.937 10.4921C147.705 10.1001 147.393 9.7921 147.001 9.5681C146.617 9.3361 146.189 9.2201 145.717 9.2201C145.245 9.2201 144.813 9.3361 144.421 9.5681C144.037 9.7921 143.729 10.1001 143.497 10.4921C143.273 10.8761 143.161 11.3041 143.161 11.7761V18.5921H140.233L140.221 6.5921H143.149L143.161 7.6601C143.569 7.2281 144.057 6.8881 144.625 6.6401C145.193 6.3841 145.805 6.2561 146.461 6.2561C147.333 6.2561 148.129 6.4721 148.849 6.9041C149.569 7.3281 150.141 7.9001 150.565 8.6201C150.997 9.3321 151.213 10.1281 151.213 11.0081Z" fill="white"/>
</svg>
